<mxfile host="app.diagrams.net" agent="Mozilla/5.0 (Windows NT 10.0; Win64; x64) AppleWebKit/537.36 (KHTML, like Gecko) Chrome/131.0.0.0 Safari/537.36" version="25.0.3">
  <diagram id="C5RBs43oDa-KdzZeNtuy" name="Page-1">
    <mxGraphModel dx="1311" dy="706" grid="1" gridSize="10" guides="1" tooltips="1" connect="1" arrows="1" fold="1" page="1" pageScale="1" pageWidth="827" pageHeight="1169" math="0" shadow="0">
      <root>
        <mxCell id="WIyWlLk6GJQsqaUBKTNV-0" />
        <mxCell id="WIyWlLk6GJQsqaUBKTNV-1" parent="WIyWlLk6GJQsqaUBKTNV-0" />
        <mxCell id="t3oi9hbD-jSYXLZqwvDD-77" value="" style="edgeStyle=orthogonalEdgeStyle;rounded=0;orthogonalLoop=1;jettySize=auto;html=1;" edge="1" parent="WIyWlLk6GJQsqaUBKTNV-1" source="WIyWlLk6GJQsqaUBKTNV-12">
          <mxGeometry relative="1" as="geometry">
            <mxPoint x="400.5" y="600" as="targetPoint" />
          </mxGeometry>
        </mxCell>
        <mxCell id="WIyWlLk6GJQsqaUBKTNV-12" value="Withdraw Request" style="rounded=1;whiteSpace=wrap;html=1;fontSize=12;glass=0;strokeWidth=1;shadow=0;fillColor=#f9f7ed;strokeColor=#36393d;" parent="WIyWlLk6GJQsqaUBKTNV-1" vertex="1">
          <mxGeometry x="340.5" y="490" width="120" height="40" as="geometry" />
        </mxCell>
        <mxCell id="t3oi9hbD-jSYXLZqwvDD-16" value="Withdraw Vacation Request&amp;nbsp; Flow" style="rounded=0;whiteSpace=wrap;html=1;fillColor=#d5e8d4;strokeColor=#82b366;" vertex="1" parent="WIyWlLk6GJQsqaUBKTNV-1">
          <mxGeometry x="284" width="260" height="60" as="geometry" />
        </mxCell>
        <mxCell id="t3oi9hbD-jSYXLZqwvDD-38" value="" style="edgeStyle=orthogonalEdgeStyle;rounded=0;orthogonalLoop=1;jettySize=auto;html=1;" edge="1" parent="WIyWlLk6GJQsqaUBKTNV-1" source="t3oi9hbD-jSYXLZqwvDD-37" target="t3oi9hbD-jSYXLZqwvDD-42">
          <mxGeometry relative="1" as="geometry" />
        </mxCell>
        <mxCell id="t3oi9hbD-jSYXLZqwvDD-39" value="True" style="edgeLabel;html=1;align=center;verticalAlign=middle;resizable=0;points=[];" vertex="1" connectable="0" parent="t3oi9hbD-jSYXLZqwvDD-38">
          <mxGeometry x="-0.4648" y="-1" relative="1" as="geometry">
            <mxPoint x="-28" y="-4" as="offset" />
          </mxGeometry>
        </mxCell>
        <mxCell id="t3oi9hbD-jSYXLZqwvDD-69" style="edgeStyle=orthogonalEdgeStyle;rounded=0;orthogonalLoop=1;jettySize=auto;html=1;entryX=0.5;entryY=1;entryDx=0;entryDy=0;" edge="1" parent="WIyWlLk6GJQsqaUBKTNV-1" source="t3oi9hbD-jSYXLZqwvDD-37" target="t3oi9hbD-jSYXLZqwvDD-47">
          <mxGeometry relative="1" as="geometry" />
        </mxCell>
        <mxCell id="t3oi9hbD-jSYXLZqwvDD-70" value="False" style="edgeLabel;html=1;align=center;verticalAlign=middle;resizable=0;points=[];" vertex="1" connectable="0" parent="t3oi9hbD-jSYXLZqwvDD-69">
          <mxGeometry x="-0.2832" y="-2" relative="1" as="geometry">
            <mxPoint x="27" y="-8" as="offset" />
          </mxGeometry>
        </mxCell>
        <mxCell id="t3oi9hbD-jSYXLZqwvDD-37" value="Authenticate" style="rhombus;whiteSpace=wrap;html=1;shadow=0;fontFamily=Helvetica;fontSize=12;align=center;strokeWidth=1;spacing=6;spacingTop=-4;fillColor=#dae8fc;strokeColor=#6c8ebf;" vertex="1" parent="WIyWlLk6GJQsqaUBKTNV-1">
          <mxGeometry x="350.5" y="200" width="100" height="80" as="geometry" />
        </mxCell>
        <mxCell id="t3oi9hbD-jSYXLZqwvDD-73" value="" style="edgeStyle=orthogonalEdgeStyle;rounded=0;orthogonalLoop=1;jettySize=auto;html=1;" edge="1" parent="WIyWlLk6GJQsqaUBKTNV-1" source="t3oi9hbD-jSYXLZqwvDD-42" target="t3oi9hbD-jSYXLZqwvDD-71">
          <mxGeometry relative="1" as="geometry" />
        </mxCell>
        <mxCell id="t3oi9hbD-jSYXLZqwvDD-42" value="ViewVacation Requests" style="rounded=1;whiteSpace=wrap;html=1;fontSize=12;glass=0;strokeWidth=1;shadow=0;fillColor=#f9f7ed;strokeColor=#36393d;" vertex="1" parent="WIyWlLk6GJQsqaUBKTNV-1">
          <mxGeometry x="340.5" y="310" width="120" height="40" as="geometry" />
        </mxCell>
        <mxCell id="t3oi9hbD-jSYXLZqwvDD-67" style="edgeStyle=orthogonalEdgeStyle;rounded=0;orthogonalLoop=1;jettySize=auto;html=1;" edge="1" parent="WIyWlLk6GJQsqaUBKTNV-1" source="t3oi9hbD-jSYXLZqwvDD-47" target="t3oi9hbD-jSYXLZqwvDD-37">
          <mxGeometry relative="1" as="geometry">
            <Array as="points">
              <mxPoint x="400.5" y="130" />
            </Array>
          </mxGeometry>
        </mxCell>
        <mxCell id="t3oi9hbD-jSYXLZqwvDD-47" value="Employee&amp;nbsp;&lt;div&gt;Login&lt;/div&gt;" style="ellipse;whiteSpace=wrap;html=1;fillColor=#ffe6cc;strokeColor=#d79b00;" vertex="1" parent="WIyWlLk6GJQsqaUBKTNV-1">
          <mxGeometry x="191.5" y="110" width="100" height="40" as="geometry" />
        </mxCell>
        <mxCell id="t3oi9hbD-jSYXLZqwvDD-81" style="edgeStyle=orthogonalEdgeStyle;rounded=0;orthogonalLoop=1;jettySize=auto;html=1;" edge="1" parent="WIyWlLk6GJQsqaUBKTNV-1" source="t3oi9hbD-jSYXLZqwvDD-57" target="t3oi9hbD-jSYXLZqwvDD-62">
          <mxGeometry relative="1" as="geometry" />
        </mxCell>
        <mxCell id="t3oi9hbD-jSYXLZqwvDD-57" value="Restore Vacation&amp;nbsp;&lt;span style=&quot;background-color: initial;&quot;&gt;Balance&lt;/span&gt;" style="rounded=1;whiteSpace=wrap;html=1;fillColor=#f9f7ed;strokeColor=#36393d;" vertex="1" parent="WIyWlLk6GJQsqaUBKTNV-1">
          <mxGeometry x="340.5" y="720" width="121" height="50" as="geometry" />
        </mxCell>
        <mxCell id="t3oi9hbD-jSYXLZqwvDD-62" value="Notify Manager" style="ellipse;whiteSpace=wrap;html=1;fillColor=#ffe6cc;strokeColor=#d79b00;" vertex="1" parent="WIyWlLk6GJQsqaUBKTNV-1">
          <mxGeometry x="536.5" y="725" width="100" height="40" as="geometry" />
        </mxCell>
        <mxCell id="t3oi9hbD-jSYXLZqwvDD-76" value="" style="edgeStyle=orthogonalEdgeStyle;rounded=0;orthogonalLoop=1;jettySize=auto;html=1;" edge="1" parent="WIyWlLk6GJQsqaUBKTNV-1" source="t3oi9hbD-jSYXLZqwvDD-71" target="WIyWlLk6GJQsqaUBKTNV-12">
          <mxGeometry relative="1" as="geometry" />
        </mxCell>
        <mxCell id="t3oi9hbD-jSYXLZqwvDD-71" value="Choose Pending Request" style="rounded=1;whiteSpace=wrap;html=1;fontSize=12;glass=0;strokeWidth=1;shadow=0;fillColor=#f9f7ed;strokeColor=#36393d;" vertex="1" parent="WIyWlLk6GJQsqaUBKTNV-1">
          <mxGeometry x="340.5" y="400" width="120" height="40" as="geometry" />
        </mxCell>
        <mxCell id="t3oi9hbD-jSYXLZqwvDD-80" value="" style="edgeStyle=orthogonalEdgeStyle;rounded=0;orthogonalLoop=1;jettySize=auto;html=1;" edge="1" parent="WIyWlLk6GJQsqaUBKTNV-1" source="t3oi9hbD-jSYXLZqwvDD-78" target="t3oi9hbD-jSYXLZqwvDD-57">
          <mxGeometry relative="1" as="geometry" />
        </mxCell>
        <mxCell id="t3oi9hbD-jSYXLZqwvDD-78" value="Update Request&lt;div&gt;(WITHDRAWN)&lt;/div&gt;" style="shape=parallelogram;perimeter=parallelogramPerimeter;whiteSpace=wrap;html=1;fixedSize=1;fillColor=#e1d5e7;strokeColor=#9673a6;" vertex="1" parent="WIyWlLk6GJQsqaUBKTNV-1">
          <mxGeometry x="340.5" y="600" width="120" height="60" as="geometry" />
        </mxCell>
      </root>
    </mxGraphModel>
  </diagram>
</mxfile>
